name analog
datacolumns 19
datarows 18
range 0.0 0.0085
endheader
time	ground_force_vx	ground_force_vy	ground_force_vz	ground_force_px	ground_force_py	ground_force_pz	l_ground_force_vx	l_ground_force_vy	l_ground_force_vz	l_ground_force_px	l_ground_force_py	l_ground_force_pz	ground_torque_x	ground_torque_y	ground_torque_z	l_ground_torque_x	l_ground_torque_y	l_ground_torque_z
0.0	-0.0	-0.0	-0.0	1.4597610235214231	38.02631759643555	-465.73187255859375	3.371009826660156	-37.661651611328125	-357.7356872558594	-0.0	-0.0	-0.0	-0.0	-0.0	-0.0	108426.5234375	-24409.0390625	3245.0244140625
0.0005	-0.0	-0.0	-0.0	1.2734737396240234	38.00186920166016	-464.6412963867188	3.0682308673858643	-37.304012298583984	-357.7696228027344	-0.0	-0.0	-0.0	-0.0	-0.0	-0.0	108361.703125	-24227.189453125	3073.5078125
0.001	-0.0	-0.0	-0.0	1.8487484455108645	38.26538848876953	-464.1761474609375	2.951509952545166	-37.34024429321289	-357.6422119140625	-0.0	-0.0	-0.0	-0.0	-0.0	-0.0	108057.6171875	-24181.001953125	3056.05419921875
0.0015	-0.0	-0.0	-0.0	1.3666647672653198	38.20846176147461	-463.51416015625	2.72583532333374	-37.21554565429688	-356.3727111816406	-0.0	-0.0	-0.0	-0.0	-0.0	-0.0	107983.7734375	-23823.546875	2997.99267578125
0.002	-0.0	-0.0	-0.0	1.4522887468338013	38.32607269287109	-462.9059448242188	2.2381186485290527	-37.271751403808594	-356.70623779296875	-0.0	-0.0	-0.0	-0.0	-0.0	-0.0	107699.0546875	-23710.357421875	2878.984130859375
0.0025	-0.0	-0.0	-0.0	1.0670232772827148	38.44374847412109	-462.1994323730469	2.0686371326446533	-37.14761352539063	-354.7229309082031	-0.0	-0.0	-0.0	-0.0	-0.0	-0.0	107450.6640625	-23487.640625	2827.753662109375
0.003	-0.0	-0.0	-0.0	0.7641081809997559	38.3900146484375	-463.498779296875	1.9158426523208616	-36.982303619384766	-354.7086486816406	-0.0	-0.0	-0.0	-0.0	-0.0	-0.0	107378.2421875	-23517.212890625	2761.4453125
0.0035	-0.0	-0.0	-0.0	0.1398104727268219	38.26886749267578	-462.0990295410156	1.7742156982421875	-37.03865432739258	-353.4242248535156	-0.0	-0.0	-0.0	-0.0	-0.0	-0.0	106915.53125	-23295.11328125	2727.97900390625
0.004	-0.0	-0.0	-0.0	0.2676315307617187	38.8035774230957	-459.7395629882813	1.600344181060791	-36.89020538330078	-352.3917236328125	-0.0	-0.0	-0.0	-0.0	-0.0	-0.0	106861.6640625	-23090.890625	2591.524169921875
0.0045000000000000005	-0.0	-0.0	-0.0	0.1179110035300254	38.803504943847656	-460.4453430175781	1.359084963798523	-36.99993896484375	-352.2804260253906	-0.0	-0.0	-0.0	-0.0	-0.0	-0.0	106640.765625	-22990.173828125	2514.16259765625
0.005	-0.0	-0.0	-0.0	-0.3885937035083771	38.91826248168945	-461.2410583496094	0.7665854096412659	-37.03845977783203	-351.259765625	-0.0	-0.0	-0.0	-0.0	-0.0	-0.0	106520.3046875	-23058.248046875	2484.041015625
0.0055	-0.0	-0.0	-0.0	-0.0316859260201454	38.6796760559082	-459.0084838867188	0.7983970642089844	-36.91196060180664	-351.2593994140625	-0.0	-0.0	-0.0	-0.0	-0.0	-0.0	106331.5	-22572.4765625	2404.595947265625
0.006	-0.0	-0.0	-0.0	-0.4404238760471344	38.83208465576172	-460.4215087890625	0.529106080532074	-37.08567810058594	-350.5233459472656	-0.0	-0.0	-0.0	-0.0	-0.0	-0.0	106210.96875	-22529.408203125	2352.431396484375
0.006500000000000001	-0.0	-0.0	-0.0	-0.839844822883606	38.648380279541016	-459.3622131347656	0.6525790095329285	-37.271751403808594	-351.2705383300781	-0.0	-0.0	-0.0	-0.0	-0.0	-0.0	106202.8203125	-22582.5859375	2432.996337890625
0.007	-0.0	-0.0	-0.0	-0.6559627652168274	38.506961822509766	-458.66650390625	0.7698180675506592	-37.41994094848633	-350.7966003417969	-0.0	-0.0	-0.0	-0.0	-0.0	-0.0	105920.8359375	-22617.572265625	2413.9375
0.0075	-0.0	-0.0	-0.0	-0.5955764651298523	38.44407653808594	-458.1987609863281	0.7669166922569275	-37.83302688598633	-350.8973999023437	-0.0	-0.0	-0.0	-0.0	-0.0	-0.0	106184.4140625	-22420.525390625	2334.39501953125
0.008	-0.0	-0.0	-0.0	-0.5063295364379883	38.49951934814453	-459.382080078125	0.6523833870887756	-37.41986846923828	-350.55908203125	-0.0	-0.0	-0.0	-0.0	-0.0	-0.0	106206.109375	-22329.36328125	2453.07470703125
0.0085	-0.0	-0.0	-0.0	-0.7762691378593445	38.44880294799805	-460.31732177734375	0.9184650778770448	-37.38595581054688	-350.06512451171875	-0.0	-0.0	-0.0	-0.0	-0.0	-0.0	106073.875	-22410.55859375	2345.101806640625
